<svg width="16" height="16" viewBox="0 0 16 16" fill="none" xmlns="http://www.w3.org/2000/svg">
<path d="M8.7 10.6V5H10.1V6.4H11.5L12.9 5H15V6.4H11.5V9.2H15V10.6H12.9L11.5 9.2H10.1V10.6H8.7Z" fill="#5A5A5A"/>
<path fill-rule="evenodd" clip-rule="evenodd" d="M7.3 5H1V10.6H7.3V5ZM2.4 9.2V6.4H5.9V9.2H2.4Z" fill="#5A5A5A"/>
<path d="M3.79999 0.800003C2.2536 0.800003 1 2.0536 1 3.6H15C15 2.0536 13.7464 0.800003 12.2 0.800003H3.79999Z" fill="#5A5A5A"/>
<path d="M1 12C1 13.5464 2.2536 14.8 3.8 14.8H12.2C13.7464 14.8 15 13.5464 15 12H1Z" fill="#5A5A5A"/>
</svg>
