<svg width="28" height="28" viewBox="0 0 28 28" fill="none" xmlns="http://www.w3.org/2000/svg">
<path d="M15.3 19.4V8.99999H17.9V11.6H20.5L23.1 8.99999H27V11.6H20.5V16.8H27V19.4H23.1L20.5 16.8H17.9V19.4H15.3Z" fill="#5A5A5A"/>
<path fill-rule="evenodd" clip-rule="evenodd" d="M12.7 8.99999H1V19.4H12.7V8.99999ZM3.6 16.8V11.6H10.1V16.8H3.6Z" fill="#5A5A5A"/>
<path d="M6.19999 1.2C3.32812 1.2 1 3.52811 1 6.39999H27C27 3.52811 24.6719 1.2 21.8 1.2H6.19999Z" fill="#5A5A5A"/>
<path d="M1 22C1 24.8719 3.32812 27.2 6.2 27.2H21.8C24.6719 27.2 27 24.8719 27 22H1Z" fill="#5A5A5A"/>
</svg>
