<svg width="28" height="28" viewBox="0 0 28 28" fill="none" xmlns="http://www.w3.org/2000/svg">
<path d="M15.3 19.4V9H17.9V11.6H20.5L23.1 9H27V11.6H20.5V16.8H27V19.4H23.1L20.5 16.8H17.9V19.4H15.3Z" fill="#5A5A5A"/>
<path fill-rule="evenodd" clip-rule="evenodd" d="M12.7 9H1V19.4H12.7V9ZM3.6 16.8V11.6H10.1V16.8H3.6Z" fill="#5A5A5A"/>
<path d="M2.2 1.2C1.53726 1.2 1 1.73726 1 2.4V6.4H27V2.4C27 1.73726 26.4627 1.2 25.8 1.2H2.2Z" fill="#5A5A5A"/>
<path d="M1 22V26C1 26.6627 1.53726 27.2 2.2 27.2H25.8C26.4627 27.2 27 26.6627 27 26V22H1Z" fill="#5A5A5A"/>
</svg>
