<svg width="20" height="20" viewBox="0 0 20 20" fill="none" xmlns="http://www.w3.org/2000/svg">
<path d="M10.9 13.2V6H12.7V7.8H14.5L16.3 6H19V7.8H14.5V11.4H19V13.2H16.3L14.5 11.4H12.7V13.2H10.9Z" fill="#5A5A5A"/>
<path fill-rule="evenodd" clip-rule="evenodd" d="M9.1 6H1V13.2H9.1V6ZM2.8 11.4V7.8H7.3V11.4H2.8Z" fill="#5A5A5A"/>
<path d="M4.59999 0.600006C2.61177 0.600006 1 2.21178 1 4.2H19C19 2.21178 17.3882 0.600006 15.4 0.600006H4.59999Z" fill="#5A5A5A"/>
<path d="M1 15C1 16.9882 2.61177 18.6 4.6 18.6H15.4C17.3882 18.6 19 16.9882 19 15H1Z" fill="#5A5A5A"/>
</svg>
