<svg width="24" height="24" viewBox="0 0 24 24" fill="none" xmlns="http://www.w3.org/2000/svg">
<path d="M13.1 16.8V7.99999H15.3V10.2H17.5L19.7 7.99999H23V10.2H17.5V14.6H23V16.8H19.7L17.5 14.6H15.3V16.8H13.1Z" fill="#5A5A5A"/>
<path fill-rule="evenodd" clip-rule="evenodd" d="M10.9 7.99999H1V16.8H10.9V7.99999ZM3.2 14.6V10.2H8.7V14.6H3.2Z" fill="#5A5A5A"/>
<path d="M5.39999 1.39999C2.96994 1.39999 1 3.36994 1 5.79999H23C23 3.36994 21.0301 1.39999 18.6 1.39999H5.39999Z" fill="#5A5A5A"/>
<path d="M1 19C1 21.43 2.96995 23.4 5.4 23.4H18.6C21.0301 23.4 23 21.43 23 19H1Z" fill="#5A5A5A"/>
</svg>
