<svg width="24" height="24" viewBox="0 0 24 24" fill="none" xmlns="http://www.w3.org/2000/svg">
<path d="M13.1 16.8V8H15.3V10.2H17.5L19.7 8H23V10.2H17.5V14.6H23V16.8H19.7L17.5 14.6H15.3V16.8H13.1Z" fill="#5A5A5A"/>
<path fill-rule="evenodd" clip-rule="evenodd" d="M10.9 8H1V16.8H10.9V8ZM3.2 14.6V10.2H8.7V14.6H3.2Z" fill="#5A5A5A"/>
<path d="M2.2 1.4C1.53726 1.4 1 1.93726 1 2.6V5.8H23V2.6C23 1.93726 22.4627 1.4 21.8 1.4H2.2Z" fill="#5A5A5A"/>
<path d="M1 19V22.2C1 22.8627 1.53726 23.4 2.2 23.4H21.8C22.4627 23.4 23 22.8627 23 22.2V19H1Z" fill="#5A5A5A"/>
</svg>
