<svg width="16" height="16" viewBox="0 0 16 16" fill="none" xmlns="http://www.w3.org/2000/svg">
<path d="M8.7 10.6V5H10.1V6.4H11.5L12.9 5H15V6.4H11.5V9.2H15V10.6H12.9L11.5 9.2H10.1V10.6H8.7Z" fill="#5A5A5A"/>
<path fill-rule="evenodd" clip-rule="evenodd" d="M7.3 5H1V10.6H7.3V5ZM2.4 9.2V6.4H5.9V9.2H2.4Z" fill="#5A5A5A"/>
<path d="M2.2 0.799999C1.53726 0.799999 1 1.33726 1 2V3.6H15V2C15 1.33726 14.4627 0.799999 13.8 0.799999H2.2Z" fill="#5A5A5A"/>
<path d="M1 12V13.6C1 14.2627 1.53726 14.8 2.2 14.8H13.8C14.4627 14.8 15 14.2627 15 13.6V12H1Z" fill="#5A5A5A"/>
</svg>
