<svg width="32" height="32" viewBox="0 0 32 32" fill="none" xmlns="http://www.w3.org/2000/svg">
<path d="M17.5 22V10H20.5V13H23.5L26.5 10H31V13H23.5V19H31V22H26.5L23.5 19H20.5V22H17.5Z" fill="#5A5A5A"/>
<path fill-rule="evenodd" clip-rule="evenodd" d="M14.5 10H1V22H14.5V10ZM4 19V13H11.5V19H4Z" fill="#5A5A5A"/>
<path d="M2.2 1C1.53726 1 1 1.53726 1 2.2V7H31V2.2C31 1.53726 30.4627 1 29.8 1H2.2Z" fill="#5A5A5A"/>
<path d="M1 25V29.8C1 30.4627 1.53726 31 2.2 31H29.8C30.4627 31 31 30.4627 31 29.8V25H1Z" fill="#5A5A5A"/>
</svg>
