<svg width="32" height="32" viewBox="0 0 32 32" fill="none" xmlns="http://www.w3.org/2000/svg">
<path d="M17.5 22V9.99999H20.5V13H23.5L26.5 9.99999H31V13H23.5V19H31V22H26.5L23.5 19H20.5V22H17.5Z" fill="#5A5A5A"/>
<path fill-rule="evenodd" clip-rule="evenodd" d="M14.5 9.99999H1V22H14.5V9.99999ZM4 19V13H11.5V19H4Z" fill="#5A5A5A"/>
<path d="M6.99999 1C3.68629 1 1 3.68629 1 6.99999H31C31 3.68629 28.3137 1 25 1H6.99999Z" fill="#5A5A5A"/>
<path d="M1 25C1 28.3137 3.68629 31 7 31H25C28.3137 31 31 28.3137 31 25H1Z" fill="#5A5A5A"/>
</svg>
