<svg width="20" height="20" viewBox="0 0 20 20" fill="none" xmlns="http://www.w3.org/2000/svg">
<path d="M10.9 13.2V6H12.7V7.8H14.5L16.3 6H19V7.8H14.5V11.4H19V13.2H16.3L14.5 11.4H12.7V13.2H10.9Z" fill="#5A5A5A"/>
<path fill-rule="evenodd" clip-rule="evenodd" d="M9.1 6H1V13.2H9.1V6ZM2.8 11.4V7.8H7.3V11.4H2.8Z" fill="#5A5A5A"/>
<path d="M2.2 0.6C1.53726 0.6 1 1.13726 1 1.8V4.2H19V1.8C19 1.13726 18.4627 0.6 17.8 0.6H2.2Z" fill="#5A5A5A"/>
<path d="M1 15V17.4C1 18.0627 1.53726 18.6 2.2 18.6H17.8C18.4627 18.6 19 18.0627 19 17.4V15H1Z" fill="#5A5A5A"/>
</svg>
